<svg width="130" height="41" viewBox="0 0 130 41" fill="none" xmlns="http://www.w3.org/2000/svg">
<g clip-path="url(#clip0_1_276)">
<mask id="mask0_1_276" style="mask-type:luminance" maskUnits="userSpaceOnUse" x="0" y="4" width="40" height="37">
<path d="M39.8773 4.94785H0V40.6275H39.8773V4.94785Z" fill="white"/>
</mask>
<g mask="url(#mask0_1_276)">
<path d="M27.7408 32.7877L19.9383 40.6202L3.21804 23.8357C-1.08594 19.5152 -1.08594 12.4914 3.21804 8.17082C7.52202 3.85031 14.519 3.85031 18.823 8.17082L27.7408 17.1229C32.0447 21.4434 32.0447 28.4673 27.7408 32.7877Z" fill="url(#paint0_linear_1_276)"/>
<path opacity="0.9" d="M36.6564 8.17456C40.9605 12.495 40.9605 19.5189 36.6564 23.8394L19.9363 40.6239L12.1338 32.7915C7.82979 28.4709 7.8298 21.4471 12.1338 17.1265L21.0516 8.17456C25.3555 3.85402 32.3525 3.85402 36.6564 8.17456Z" fill="url(#paint1_linear_1_276)"/>
<path d="M27.8454 19.4148C28.5531 18.3389 29.3418 16.627 28.5464 15.4564C28.2161 14.976 27.6027 14.6715 27.023 14.7662C26.1669 14.9083 26.2883 15.5308 26.3489 16.248C26.4366 17.2833 26.6658 18.2983 26.9826 19.2862C26.5916 19.814 26.14 20.2944 25.6209 20.7004C24.1178 21.8913 22.2035 22.5409 20.3093 22.683C18.3007 22.8386 16.1841 22.4597 14.4451 21.4041C13.9732 21.1199 13.5351 20.7478 13.1644 20.3215C13.2992 19.9358 13.4205 19.5433 13.4946 19.1373C13.744 17.872 13.9732 15.4767 12.5038 14.8338C12.2948 14.7459 12.1128 14.7865 11.978 14.976C11.0006 16.3022 10.9872 18.0682 11.6612 19.5298C11.823 19.8817 12.0319 20.2064 12.2612 20.5109C11.7219 21.8101 10.8995 22.9875 9.9828 24.0363C8.96498 25.2069 7.81909 26.3234 6.57207 27.2503C6.55186 27.2639 6.53163 27.2775 6.51141 27.2977L7.06414 27.8526C8.47967 26.8241 9.76715 25.5182 10.8658 24.1851C11.6275 23.2582 12.3285 22.2364 12.8341 21.1402C13.5216 21.7966 14.3507 22.304 15.2202 22.6627C18.1119 23.8672 21.5227 23.7453 24.3402 22.392C25.466 21.8507 26.4703 21.0793 27.2724 20.1252C27.3735 20.3756 27.4679 20.626 27.5825 20.8764C28.789 23.4882 30.7641 25.6941 33.2042 27.1624L33.7703 26.594C31.0269 24.9903 28.9036 22.3988 27.8319 19.408L27.8454 19.4148ZM12.4297 15.7135C13.252 16.4849 12.9082 18.4742 12.6049 19.5569C11.9039 18.3863 11.7017 16.9788 12.4297 15.7135ZM28.0206 17.148C27.9195 17.5878 27.7442 18.0141 27.5353 18.4133C27.2859 17.4863 27.1376 16.5255 27.0972 15.5511C27.9128 15.2195 28.1554 16.5525 28.0206 17.148Z" fill="white"/>
</g>
<path d="M58.7941 8.64272C58.7941 11.456 58.5487 14.0892 57.9108 16.559H61.1167V5.96036H65.0093V33.7654H61.1167V19.9283H56.7169C55.0977 23.4612 52.3172 26.5525 47.7702 29.1531L45.4477 26.3071C49.2259 24.1154 51.5975 21.6457 53.0041 18.767L46.0692 19.4704L45.6112 15.9375L54.1653 15.4795C54.4434 14.3673 54.607 13.206 54.7051 11.9793H47.0833V8.64272H58.7941ZM67.43 35.0739V5.30613H71.3555V35.0739H67.43ZM81.7014 7.39968C85.725 7.39968 88.735 10.7036 89.3236 16.0684H94.4916V5.30613H98.6134V35.1394H94.4916V19.405H89.3722C88.9312 25.1295 85.8558 28.6297 81.7014 28.6297C77.1873 28.6297 73.9489 24.5407 73.9816 17.9983C73.9489 11.505 77.1873 7.39968 81.7014 7.39968ZM77.9724 17.9983C77.956 22.4308 79.4771 24.8515 81.7014 24.8351C83.9425 24.8515 85.4307 22.4308 85.4307 17.9983C85.4307 13.5822 83.9425 11.1615 81.7014 11.1615C79.4771 11.1615 77.956 13.5822 77.9724 17.9983ZM116.091 7.30155V16.788H106.736V20.0264C111.364 20.0101 114.57 19.8629 118.152 19.3068L118.479 22.6434C114.374 23.2813 110.71 23.3795 105.034 23.363H102.548V13.6149H111.936V10.6055H102.516V7.30155H116.091ZM106.605 34.5505V25.4566H110.759V31.2139H127.278V34.5505H106.605ZM117.596 16.0029V12.47H122.371V5.33883H126.526V27.2558H122.371V16.0029H117.596Z" fill="black"/>
</g>
<defs>
<linearGradient id="paint0_linear_1_276" x1="3.21328" y1="8.1756" x2="27.83" y2="32.6982" gradientUnits="userSpaceOnUse">
<stop stop-color="#F4A400"/>
<stop offset="0.96" stop-color="#F18B00"/>
<stop offset="1" stop-color="#EB6100"/>
</linearGradient>
<linearGradient id="paint1_linear_1_276" x1="32.8577" y1="12.1984" x2="12.2613" y2="32.3823" gradientUnits="userSpaceOnUse">
<stop stop-color="#E9451B"/>
<stop offset="1" stop-color="#F5B042"/>
</linearGradient>
<clipPath id="clip0_1_276">
<rect width="130" height="40.6748" fill="white" transform="translate(0 0.162577)"/>
</clipPath>
</defs>
</svg>
